/* XPM */
static char *arrowfirst[] = {
/* width height num_colors chars_per_pixel */
"    16    9        4            1",
/* colors */
". c #808080",
"# c #000000",
"+ c #e0e0e0",
"a c none",
/* pixels */
"a###aaaaaaaa##aa",
"a#..+aaaaa##..aa",
"a#..+aaa##....aa",
"a#..+a##......aa",
"a#..+a........aa",
"a#..+a++......aa",
"a#..+aaa++....aa",
"a#..+aaaaa++..aa",
"aa+++aaaaaaa++aa"
};
