/* XPM */
static char *arrowmax[] = {
/* width height num_colors chars_per_pixel */
"    16    9        4            1",
/* colors */
". c #808080",
"# c #000000",
"+ c #e0e0e0",
"a c none",
/* pixels */
"aa##aaaaaaa###aa",
"aa..##aaaaa#..+a",
"aa....##aaa#..+a",
"aa......##a#..+a",
"aa........a#..+a",
"aa......++a#..+a",
"aa....++aaa#..+a",
"aa..++aaaaa#..+a",
"aa++aaaaaaaa+++a"
};
