/* XPM */
static char *calendar1[] = {
/* width height num_colors chars_per_pixel */
"    16    16       26            1",
/* colors */
". c none",
"# c #1c1700",
"a c #1c1c1c",
"b c #382f00",
"c c #38341c",
"d c #383838",
"e c #554700",
"f c #554c1c",
"g c #555038",
"h c #000000",
"i c #715f00",
"j c #716838",
"k c #000000",
"l c #8d7700",
"m c #000000",
"n c #aaaaaa",
"o c #c6c6c6",
"p c #e2e2e2",
"q c #ff0000",
"r c #ff1c1c",
"s c #ff5555",
"t c #ff7171",
"u c #ff8d8d",
"v c #ffaaaa",
"w c #ffc6c6",
"x c #ffffff",
/* pixels */
"....i#....b.....",
".nnnljhnnkgkmnd.",
".xxxljmxxngmpxka",
".xxxe#pxxh#kxxka",
".xxxnoxxxpoxxxmd",
".xxxxxxtsxxxxxmd",
".xxxxxsqqxxxxxka",
".xxxxxxsqxxxxxka",
".xxxxxxsqxxxxxka",
".nnnpxxsqxxxxxmd",
".oxxnxxsqxxxxxka",
".npxnxxsqxxxxxka",
".xoxnxxsqxxxxxmd",
".xxnnxxxxxxxxxmd",
".xxonxxxxxxxxxka",
".hkkkkkkkkkkkkka",
};
