/* XPM */
static char *fd2[] = {
/* width height num_colors chars_per_pixel */
"    64    41        9            1",
/* colors */
". c #bdbdfc",
"# c #aeceff",
"a c #9f9ff7",
"b c #8e8ef2",
"c c none",
"d c #7171e5",
"e c #6060da",
"f c #5151ce",
"g c #4141bf",
/* pixels */
"cccccccccccccccccccccccccccccccccccccccccccccccccccccccccccccccc",
"ca###########################bccca###################bcccccccccc",
"c#.##########################accc#.##################aabcccccccc",
"c##ceffdcccccccccccccccceffdccedc##cefdcccccccccccccccbacccccccc",
"c#bddffeccccccccccccccceggdbbcffc#bddfeccccccccccccccccccccccccc",
"c#cfccccabcccccccccccccfgc.abcffc#cfcccabccccccccccccccccccccccc",
"c#aeccca.#cccccccccccccdc.aedbffc#cfccc##ccccccccccccccccccccccc",
"c##edccb#accccccccccccccbbeea#ffc#aecccbaccccccccccccccccccccccc",
"c##dc##bcccccccccccccccccdda.affc##ca##bcccccccccccccccccccccccc",
"c##cb##aceffffffffffffffffecdfgfc##cb##aefffffffffdccccccccccedc",
"c##ccccccfgffffffffffffffffffffec##cccccfgffffffffeccccccccccffc",
"c##ccccccffcccccccccccccccccccccc##cccccffcccccccccccccccccccffc",
"c##ccccccffcccccccccccccccccccccc##cccccffcccccccccccccccccccffc",
"c##ccccccffcccccccccccccccccccccc##cccccffcccccccccccccccccccffc",
"c##ccccccffcccccccccccccccccccccc##cccccffccccccccccccabcccccffc",
"c##cccccegfcccccccccccccccccccccc##cccccffcccccccccccc##cccccffc",
"c##cefffggecccccccccccccccccccccc##cccccffcccccccccccc##cccccffc",
"c##cfecccb################bcccccc##cccccffcccccccccccc##effdcffc",
"c##cfc.ba#############bca#cdccccc##cccccffcccccccccccc#bggfecffc",
"c##cfc#dcbccccccccccccddbbffccccc##cccccffcccccccccccc#adb###efc",
"c##cfc#ecacccccccccccceeaaffccccc##cccccffcccccccccccc#becccadfc",
"c##cfc#dcbccccccccccccddbbffccccc##cccccffcccccccccccc#afffdbefc",
"c##cfecfedfffffffffffffecdgfccccc##cccccffcccccccccccc##ca#..dfc",
"c##cdcaceffffffffffffffffffeccccc##cccccffcccccccccccc##cb##affc",
"c##ccb##acccccccccccccccccccccccc##cccccffcccccccccccc##cccccffc",
"c##ccccccedcccccccccccccccccccccc##cccccffcccccccccccc##cccccffc",
"c##ccccccffcccccccccccccccccccccc##cccccffccccccccccca.#cccccffc",
"c##ccccccffcccccccccccccccccccccc##cccccffcccccccccca..acccccffc",
"c##ccccccffcccccccccccccccccccccc##cccccffccccccccca..accccccffc",
"c##ccccccffcccccccccccccccccccccc##cccccffcccccccca..acccccccffc",
"c##ccccccffcccccccccccccccccccccc##cccccdc########..accccccccffc",
"c##cefdccffcccccccccccccccccccccc##effdccb#########accccccccegfc",
"c##egebbcffcccccccccccccccccccccc#bggdbbccccccccccccccccccceggec",
"c#bgeaaddffcccccccccccccccccccccc#cgc.abcccccccccccccccccceggecc",
"c#ceaaegcefcccccccccccccccccccccc#cd.aedbcccccccccccccccefggeccc",
"c#abaegc.cfcccccccccccccccccccccc#abaegb#cccccccccccccceggfecccc",
"c##bbdb..dfcccccccccccccccccccccc##bbdb.#ccccccccccccceggecccccc",
"c##ccb##cgfcccccccccccccccccccccc##ccb##acccccccccccceggeccccccc",
"cbcfffffggeccccccccccccccccccccccbcffffffffffffffffffggecccccccc",
"ccdffffffeccccccccccccccccccccccccdfffffffffffffffffffeccccccccc",
"cccccccccccccccccccccccccccccccccccccccccccccccccccccccccccccccc"
};
