/* XPM */
static char * popup_xpm[] = {
"11 14 2 1",
" 	c None",
".	c #800000",
"    ...    ",
"    ...    ",
"    ...    ",
"    ...    ",
"    ...    ",
"    ...    ",
" ......... ",
"  .......  ",
"   .....   ",
"    ...    ",
"     .     ",
"           ",
" ......... ",
" ......... "};
